<svg id="Layer_1" data-name="Layer 1" xmlns="http://www.w3.org/2000/svg" viewBox="0 0 800 800"><title>Tray-Blk-Vertical</title><path d="M121.2,624.53V594h-44V558.71H41.57V594H4.46v30.57H41.57v46.23c0,21.81,4.2,34.86,13.22,43.88,12.27,12.28,28.81,15.3,42.78,15.3,16.73,0,22.12-2.75,22.12-2.75V697a135,135,0,0,1-20.77,1.36c-4.25,0-11.7-1-16.51-5.77-4.2-4.19-5.18-11.13-5.18-17V624.53Z"/><path d="M220.27,591.21c-15,0-28.25,5.25-36.42,13.42a32.18,32.18,0,0,0-2.51,2.79V594H147V727.19h35.66V643.77c3.62-5.79,14.34-19.58,34.87-19.58a85.49,85.49,0,0,1,14.62,1.36V592.31A78.56,78.56,0,0,0,220.27,591.21Z"/><polygon points="545.96 593.96 508.35 593.96 472.11 673.37 433.37 593.96 394.07 593.96 453.69 713.73 453.69 713.74 453.69 713.74 426.7 771 464.05 771 545.96 593.96"/><path d="M344.83,594v10.58a64.63,64.63,0,0,0-38.95-13.32c-36,0-65.49,29.88-65.49,69.49,0,39.86,30.44,69.23,67.1,69.23,22.84,0,36-12.05,37.27-13.24v10.49h34.29V594ZM311.25,697c-19.19,0-35.13-14.59-35.13-36.26,0-20.71,14.76-36.53,34.31-36.53a42.51,42.51,0,0,1,33,15.94v41A39.9,39.9,0,0,1,311.25,697Z"/><path d="M544.28,683.1c13.25,0,24,10.16,24,23.42s-10.7,23.42-24,23.42-23.94-10.16-23.94-23.42S531,683.1,544.28,683.1Z"/><path d="M610,526.45c12.91,0,23.35,9.9,23.35,22.81S622.91,572.07,610,572.07s-23.36-9.89-23.36-22.81S597.08,526.45,610,526.45Z"/><rect x="592.17" y="593.96" width="35.66" height="133.23"/><path d="M722.65,591.21c-39.16,0-70.9,30.21-70.9,69.37s31.74,69.36,70.9,69.36,70.89-30.21,70.89-69.36S761.8,591.21,722.65,591.21Zm0,105.77c-19.44,0-35.19-14.7-35.19-36.4,0-21.35,15.75-36.4,35.19-36.4s35.18,15.05,35.18,36.4C757.83,682.28,742.08,697,722.65,697Z"/><path d="M485.14,59A114.85,114.85,0,0,0,370.29,173.86v21.53h57.42V173.86a57.43,57.43,0,1,1,57.43,57.43H312.86a114.86,114.86,0,1,0,0,229.71h21.53V403.57H312.86a57.43,57.43,0,0,1,0-114.86h57.43V461h57.42V288.71h57.43a114.86,114.86,0,1,0,0-229.71Z"/></svg>