<?xml version="1.0" encoding="utf-8"?>
<!-- Generator: Adobe Illustrator 23.0.2, SVG Export Plug-In . SVG Version: 6.00 Build 0)  -->
<svg version="1.1" id="Layer_1" xmlns="http://www.w3.org/2000/svg" xmlns:xlink="http://www.w3.org/1999/xlink" x="0px" y="0px"
	 viewBox="0 0 210 210.3" style="enable-background:new 0 0 210 210.3;" xml:space="preserve">
<style type="text/css">
	.st0{fill:#0B0E35;}
</style>
<g>
	<g>
		<path class="st0" d="M135,35c-22.1,0-40,17.9-40,40v7.5h20V75c0-11,9-20,20-20s20,9,20,20s-9,20-20,20H75c-22.1,0-40,17.9-40,40
			s17.9,40,40,40h7.5v-20H75c-11,0-20-9-20-20s9-20,20-20h20v60h20v-60h20c22.1,0,40-17.9,40-40S157.1,35,135,35z"/>
	</g>
</g>
</svg>
